HIERARCHY
ROOT Hips
{
 OFFSET 0.000000 0.000000 0.000000
 CHANNELS 6 Xposition Yposition Zposition Yrotation Xrotation Zrotation
 JOINT Chest
 {
  OFFSET 0.000000 9.588913 -0.003946
  CHANNELS 3 Yrotation Xrotation Zrotation
  JOINT Chest2
  {
   OFFSET 0.000000 9.541882 0.008053
   CHANNELS 3 Yrotation Xrotation Zrotation
   JOINT Chest3
   {
    OFFSET 0.000000 9.501360 0.000000
    CHANNELS 3 Yrotation Xrotation Zrotation
    JOINT Chest4
    {
     OFFSET 0.000000 9.491660 0.000000
     CHANNELS 3 Yrotation Xrotation Zrotation
     JOINT Neck
     {
      OFFSET 0.000000 14.331917 0.000000
      CHANNELS 3 Yrotation Xrotation Zrotation
      JOINT Head
      {
       OFFSET 0.000000 8.884799 0.017034
       CHANNELS 3 Yrotation Xrotation Zrotation
       End Site
       {
        OFFSET 0.000000 16.896195 0.008993
       }
      }
     }
     JOINT RightCollar
     {
      OFFSET -2.923010 9.499495 0.000000
      CHANNELS 3 Yrotation Xrotation Zrotation
      JOINT RightShoulder
      {
       OFFSET -13.795216 0.000000 0.000000
       CHANNELS 3 Yrotation Xrotation Zrotation
       JOINT RightElbow
       {
        OFFSET -30.272209 0.000000 0.000000
        CHANNELS 3 Yrotation Xrotation Zrotation
        JOINT RightWrist
        {
         OFFSET -24.478199 0.000000 0.000000
         CHANNELS 3 Yrotation Xrotation Zrotation
         End Site
         {
          OFFSET -18.090752 0.000000 0.000000
         }
        }
       }
      }
     }
     JOINT LeftCollar
     {
      OFFSET 2.923010 9.499495 0.000000
      CHANNELS 3 Yrotation Xrotation Zrotation
      JOINT LeftShoulder
      {
       OFFSET 13.795216 0.000000 0.000000
       CHANNELS 3 Yrotation Xrotation Zrotation
       JOINT LeftElbow
       {
        OFFSET 30.272209 0.000000 0.000000
        CHANNELS 3 Yrotation Xrotation Zrotation
        JOINT LeftWrist
        {
         OFFSET 24.478199 0.000000 0.000000
         CHANNELS 3 Yrotation Xrotation Zrotation
         End Site
         {
          OFFSET 18.090752 0.000000 0.000000
         }
        }
       }
      }
     }
    }
   }
  }
 }
 JOINT RightHip
 {
  OFFSET -7.826875 0.019532 0.001973
  CHANNELS 3 Yrotation Xrotation Zrotation
  JOINT RightKnee
  {
   OFFSET 0.000000 -40.546152 -0.001885
   CHANNELS 3 Yrotation Xrotation Zrotation
   JOINT RightAnkle
   {
    OFFSET 0.000000 -39.417092 -0.003189
    CHANNELS 3 Yrotation Xrotation Zrotation
    JOINT RightToe
    {
     OFFSET 0.000000 -7.579396 17.243563
     CHANNELS 3 Yrotation Xrotation Zrotation
     End Site
     {
      OFFSET 0.000000 -1.500329 6.694466
     }
    }
   }
  }
 }
 JOINT LeftHip
 {
  OFFSET 7.826875 0.019532 0.001973
  CHANNELS 3 Yrotation Xrotation Zrotation
  JOINT LeftKnee
  {
   OFFSET 0.000000 -40.546152 -0.001885
   CHANNELS 3 Yrotation Xrotation Zrotation
   JOINT LeftAnkle
   {
    OFFSET 0.000000 -39.417092 -0.003189
    CHANNELS 3 Yrotation Xrotation Zrotation
    JOINT LeftToe
    {
     OFFSET 0.000000 -7.579396 17.243563
     CHANNELS 3 Yrotation Xrotation Zrotation
     End Site
     {
      OFFSET 0.000000 -1.500329 6.694466
     }
    }
   }
  }
 }
}
MOTION
Frames: 8
Frame Time: 0.008333
0.000000 87.345680 0.000000 0.000000 -5.767889 0.000000 0.000000 11.653876 0.000000 0.000000 -5.885988 0.000000 0.000000 -0.000000 0.000000 0.000000 -0.000000 0.000000 0.000000 12.528808 0.000000 0.000000 0.711711 0.000000 0.000000 -0.000000 0.000000 0.000000 -0.000000 0.000000 2.309063 -0.000000 0.000000 -2.309063 -0.000000 -0.000000 0.000000 -0.000000 0.000000 0.000000 0.000000 0.000000 -2.309063 0.000000 0.000000 2.309063 -0.000000 0.000000 0.000000 8.520374 0.000000 0.000000 1.905768 0.000000 -0.000000 -4.658254 0.000000 0.000000 -0.000000 0.000000 0.000000 8.520374 0.000000 0.000000 1.905768 0.000000 -0.000000 -4.658254 0.000000 0.000000 -0.000000 0.000000
6.478841 88.402662 26.769441 -56.689933 -8.481949 0.174838 6.589070 3.134923 0.592235 3.746933 1.797285 0.346818 4.685935 2.242759 0.451894 3.746933 1.797285 0.346818 3.028921 12.257836 -1.839726 3.637528 -12.776370 -2.649214 -6.817347 2.953861 -0.393883 -1.505271 -2.690290 89.617974 2.114051 -17.998720 2.045772 -0.198938 -23.267354 2.176192 -11.585897 2.332103 -1.174787 1.334897 -4.885800 -88.327002 -0.354599 1.518023 -0.762178 2.442475 1.130334 -1.643149 -8.328163 12.132241 -11.031371 23.353855 -1.025445 -3.223029 16.306373 -7.899254 4.413292 -0.073334 -0.046261 -0.018382 17.411889 11.235077 10.749537 15.755122 -0.917214 -0.976870 9.918307 -1.027223 -5.660650 0.031226 0.132130 0.015447
6.472612 88.403236 26.762447 -56.686340 -8.484088 0.160560 6.580111 3.135661 0.615365 3.743801 1.798802 0.348454 4.682031 2.244641 0.453940 3.743801 1.798802 0.348454 3.037893 12.239783 -1.842987 3.648428 -12.794897 -2.655205 -6.819524 2.959602 -0.391036 -1.516498 -2.681839 89.618371 2.141406 -18.061912 2.061078 -0.213874 -23.281591 2.182993 -11.573822 2.338426 -1.176262 1.363332 -4.850477 -88.326345 -0.320270 1.456820 -0.753835 2.425116 1.085264 -1.634215 -8.328004 12.132064 -11.013991 23.348895 -1.014957 -3.217136 16.303955 -7.909448 4.397935 -0.058138 -0.038832 -0.013643 17.419320 11.233027 10.775526 15.761555 -0.926310 -0.982397 9.911110 -0.991244 -5.664411 0.027302 0.104567 0.015255
6.467496 88.403904 26.757224 -56.684333 -8.484878 0.163828 6.572333 3.138609 0.621537 3.739963 1.799856 0.350386 4.677244 2.245944 0.456346 3.739964 1.799856 0.350386 3.045761 12.222249 -1.846795 3.658259 -12.812899 -2.661506 -6.818268 2.969437 -0.390730 -1.531553 -2.679409 89.618989 2.174380 -18.100248 2.073834 -0.221271 -23.287375 2.187815 -11.560343 2.344975 -1.181394 1.396735 -4.817258 -88.326913 -0.288865 1.391334 -0.749268 2.406248 1.034463 -1.627236 -8.326726 12.128140 -11.011221 23.345794 -1.001148 -3.211669 16.300912 -7.913799 4.385315 -0.052940 -0.038748 -0.013412 17.429448 11.237723 10.781056 15.761484 -0.937562 -0.986932 9.906429 -0.980268 -5.669491 0.027022 0.099937 0.017395
6.462284 88.404603 26.751594 -56.680399 -8.483056 0.166350 6.563542 3.140741 0.626990 3.735708 1.800297 0.352604 4.671935 2.246477 0.459103 3.735708 1.800297 0.352604 3.051831 12.205400 -1.851335 3.666307 -12.830211 -2.668138 -6.814260 2.983752 -0.396312 -1.547178 -2.683377 89.625368 2.211519 -18.113742 2.081846 -0.218638 -23.286368 2.186931 -11.548682 2.352896 -1.189226 1.436774 -4.787612 -88.327623 -0.260574 1.323295 -0.750207 2.381757 0.975500 -1.618647 -8.321661 12.121294 -11.006600 23.342593 -0.985071 -3.207023 16.296626 -7.918893 4.374315 -0.048607 -0.039357 -0.013664 17.439726 11.238665 10.786124 15.761322 -0.948574 -0.989554 9.899940 -0.968147 -5.676316 0.026625 0.095642 0.019524
6.457240 88.405329 26.746362 -56.670699 -8.479842 0.169533 6.554140 3.143057 0.630758 3.731288 1.800659 0.354403 4.666420 2.246916 0.461333 3.731288 1.800659 0.354403 3.054897 12.188248 -1.856632 3.671282 -12.847870 -2.674841 -6.812374 3.000073 -0.405185 -1.564594 -2.693188 89.635280 2.251309 -18.098412 2.087094 -0.208389 -23.286175 2.175921 -11.542152 2.359792 -1.195625 1.479770 -4.760649 -88.329790 -0.235152 1.252233 -0.757383 2.349680 0.910785 -1.606458 -8.321878 12.114858 -11.003174 23.339491 -0.971006 -3.205264 16.291970 -7.923539 4.365602 -0.045124 -0.040439 -0.013747 17.444508 11.237289 10.790066 15.759852 -0.957130 -0.992802 9.891877 -0.956859 -5.682446 0.025970 0.091665 0.020725
6.452275 88.406114 26.742284 -56.654626 -8.478143 0.174309 6.545290 3.146866 0.633066 3.726851 1.802108 0.355405 4.660879 2.248722 0.462579 3.726851 1.802108 0.355405 3.054173 12.169007 -1.862529 3.672316 -12.867738 -2.681272 -6.813690 3.012377 -0.412593 -1.584671 -2.705524 89.642988 2.289884 -18.055981 2.092261 -0.191048 -23.288952 2.155417 -11.542852 2.362608 -1.198210 1.524376 -4.735264 -88.335749 -0.213427 1.178714 -0.768570 2.310970 0.843942 -1.591437 -8.330227 12.112759 -11.003616 23.336845 -0.961189 -3.204080 16.283395 -7.926577 4.356922 -0.042918 -0.041563 -0.012981 17.443609 11.236717 10.791701 15.754209 -0.963380 -0.996243 9.887507 -0.946777 -5.686634 0.025647 0.088083 0.020740
6.447418 88.406915 26.739364 -56.637185 -8.477862 0.179762 6.538435 3.151094 0.634049 3.722723 1.804661 0.355907 4.655726 2.251913 0.463213 3.722723 1.804661 0.355907 3.051531 12.146859 -1.867975 3.671202 -12.890646 -2.686781 -6.816583 3.018031 -0.416242 -1.599494 -2.717523 89.647144 2.325861 -17.999199 2.094643 -0.166993 -23.289227 2.127585 -11.547512 2.361824 -1.197970 1.569811 -4.711518 -88.347335 -0.195528 1.105640 -0.779248 2.268394 0.775040 -1.571515 -8.338422 12.113868 -11.005983 23.337401 -0.953837 -3.202146 16.266406 -7.928221 4.348796 -0.043310 -0.042652 -0.012537 17.440888 11.237499 10.792129 15.751715 -0.968081 -0.999646 9.881555 -0.938177 -5.689838 0.025521 0.085062 0.020310
